<svg width="24" height="24" viewBox="0 0 24 24" fill="none" xmlns="http://www.w3.org/2000/svg">
<g>
<path style=" stroke:none;fill-rule:nonzero;fill:rgb(0%,0%,0%);fill-opacity:1;" d="M 16.617188 0 C 16.675781 0 16.730469 0 16.789062 0 C 16.925781 1.691406 16.28125 2.957031 15.496094 3.871094 C 14.726562 4.78125 13.667969 5.664062 11.964844 5.53125 C 11.851562 3.863281 12.496094 2.691406 13.28125 1.777344 C 14.007812 0.925781 15.339844 0.167969 16.617188 0 Z M 16.617188 0 "/>
<path style=" stroke:none;fill-rule:nonzero;fill:rgb(0%,0%,0%);fill-opacity:1;" d="M 21.785156 17.617188 C 21.785156 17.632812 21.785156 17.648438 21.785156 17.664062 C 21.304688 19.117188 20.621094 20.359375 19.785156 21.515625 C 19.023438 22.566406 18.089844 23.976562 16.421875 23.976562 C 14.980469 23.976562 14.023438 23.050781 12.546875 23.023438 C 10.988281 23 10.128906 23.796875 8.699219 24 C 8.535156 24 8.375 24 8.210938 24 C 7.164062 23.847656 6.316406 23.019531 5.703125 22.269531 C 3.882812 20.058594 2.480469 17.203125 2.21875 13.546875 C 2.21875 13.1875 2.21875 12.832031 2.21875 12.472656 C 2.328125 9.859375 3.597656 7.730469 5.289062 6.699219 C 6.179688 6.152344 7.40625 5.6875 8.769531 5.894531 C 9.355469 5.984375 9.953125 6.183594 10.476562 6.382812 C 10.972656 6.574219 11.59375 6.914062 12.183594 6.894531 C 12.582031 6.882812 12.976562 6.675781 13.378906 6.527344 C 14.554688 6.105469 15.707031 5.617188 17.226562 5.847656 C 19.054688 6.121094 20.347656 6.933594 21.148438 8.183594 C 19.605469 9.167969 18.382812 10.652344 18.59375 13.179688 C 18.777344 15.480469 20.113281 16.824219 21.785156 17.617188 Z M 21.785156 17.617188 "/>
</g>
</svg>