<svg width="24" height="24" viewBox="0 0 24 24" fill="none" xmlns="http://www.w3.org/2000/svg">
<rect width="24" height="24" rx="2" fill="#FFCD00"/>
<path d="M12 5C8.13399 5 5 7.6778 5 10.9809C5 13.1165 6.31023 14.9903 8.28112 16.0485C8.17389 16.4492 7.5921 18.6264 7.56891 18.7975C7.56891 18.7975 7.555 18.9259 7.63178 18.975C7.70861 19.024 7.79891 18.9859 7.79891 18.9859C8.01914 18.9526 10.3528 17.1762 10.7567 16.8678C11.1602 16.9297 11.5757 16.9619 12 16.9619C15.866 16.9619 19 14.2842 19 10.9809C19 7.6778 15.866 5 12 5Z" fill="#381F1F"/>
</svg>
