<svg xmlns="http://www.w3.org/2000/svg" width="33" height="33" fill="none" viewBox="0 0 33 33" class="icon" role="img"><g><circle cx="16.5" cy="16.5" r="16"></circle><path d="M16.5,1C25,1,32,8,32,16.5S25,32,16.5,32S1,25,1,16.5S8,1,16.5,1 M16.5,0C7.4,0,0,7.4,0,16.5S7.4,33,16.5,33
		S33,25.6,33,16.5S25.6,0,16.5,0L16.5,0z"></path></g><path d="M17,12.1c1.6,0,1.8,0,2.4,0c1.6,0.1,2.4,0.8,2.5,2.5c0,0.6,0,0.8,0,2.4c0,1.6,0,1.8,0,2.4
	c-0.1,1.6-0.8,2.4-2.5,2.5c-0.6,0-0.8,0-2.4,0c-1.6,0-1.8,0-2.4,0c-1.6-0.1-2.4-0.8-2.5-2.5c0-0.6,0-0.8,0-2.4c0-1.6,0-1.8,0-2.4
	c0.1-1.6,0.8-2.4,2.5-2.5C15.2,12.1,15.4,12.1,17,12.1z M17,11c-1.6,0-1.8,0-2.5,0c-2.2,0.1-3.4,1.3-3.5,3.5c0,0.6,0,0.8,0,2.5
	s0,1.8,0,2.5c0.1,2.2,1.3,3.4,3.5,3.5c0.6,0,0.8,0,2.5,0s1.8,0,2.5,0c2.2-0.1,3.4-1.3,3.5-3.5c0-0.6,0-0.8,0-2.5s0-1.8,0-2.5
	c-0.1-2.2-1.3-3.4-3.5-3.5C18.8,11,18.6,11,17,11z M17,13.9c-1.7,0-3.1,1.4-3.1,3.1s1.4,3.1,3.1,3.1s3.1-1.4,3.1-3.1
	C20.1,15.3,18.7,13.9,17,13.9z M17,19c-1.1,0-2-0.9-2-2c0-1.1,0.9-2,2-2s2,0.9,2,2C19,18.1,18.1,19,17,19z M20.2,13.1
	c-0.4,0-0.7,0.3-0.7,0.7s0.3,0.7,0.7,0.7c0.4,0,0.7-0.3,0.7-0.7S20.6,13.1,20.2,13.1z"></path></svg>