<svg xmlns="http://www.w3.org/2000/svg" width="33" height="33" fill="none" viewBox="0 0 33 33" class="icon" role="img"><g><circle cx="16.5" cy="16.5" r="16"></circle><path d="M16.5,1C25,1,32,8,32,16.5S25,32,16.5,32S1,25,1,16.5S8,1,16.5,1 M16.5,0C7.4,0,0,7.4,0,16.5S7.4,33,16.5,33
		S33,25.6,33,16.5S25.6,0,16.5,0L16.5,0z"></path></g><path d="M20.7,12c-2-0.1-6.4-0.1-8.4,0c-2.1,0.1-2.4,1.4-2.4,4.9c0,3.4,0.3,4.7,2.4,4.9c2,0.1,6.4,0.1,8.4,0
	c2.1-0.1,2.4-1.4,2.4-4.9C23.1,13.5,22.8,12.2,20.7,12z M14.8,19.1v-4.4l4.4,2.2L14.8,19.1z"></path></svg>