<svg xmlns="http://www.w3.org/2000/svg" width="33" height="33" fill="none" viewBox="0 0 33 33" class="icon" role="img"><g><circle cx="16.5" cy="16.5" r="16"></circle><path d="M16.5,1C25,1,32,8,32,16.5S25,32,16.5,32S1,25,1,16.5S8,1,16.5,1 M16.5,0C7.4,0,0,7.4,0,16.5S7.4,33,16.5,33
		S33,25.6,33,16.5S25.6,0,16.5,0L16.5,0z"></path></g><path d="M17,14.6c0,0-1,0-1.9,0.9V12h-2.2v9.2h2.2v-0.7c0,0,0.5,0.9,1.8,0.9c0,0,3.1-0.1,3.1-3.4
	C20.1,18,20,14.6,17,14.6z M16.5,19.5c-0.8,0-1.4-0.6-1.4-1.4c0-0.8,0.6-1.4,1.4-1.4c0.8,0,1.4,0.6,1.4,1.4
	C17.9,18.8,17.3,19.5,16.5,19.5z"></path></svg>