<svg xmlns="http://www.w3.org/2000/svg" width="24" height="24" fill="none" viewBox="0 0 24 24" class="icon" role="img"><path fill="#000" d="M23.073 22.253l-1.946-14.31c-.04-.38-.368-.667-.758-.667h-3.656v-1.74c0-2.543-2.115-4.613-4.713-4.613-2.599 0-4.713 2.07-4.713 4.613v1.74H3.63c-.39 0-.717.288-.758.667L.927 22.253c-.022.21.047.42.192.577.144.157.35.247.566.247h20.63c.216 0 .421-.09.566-.247.145-.157.214-.366.192-.576zM8.81 5.537c0-1.72 1.431-3.122 3.19-3.122 1.758 0 3.19 1.401 3.19 3.122v1.74H8.81v-1.74zm-6.28 16.05l1.786-12.82h2.97v1.644c0 .412.342.746.762.746.421 0 .762-.334.762-.746V8.767h6.38v1.643c0 .412.34.746.761.746.42 0 .762-.334.762-.746V8.767h2.97l1.786 12.819H2.53z"></path></svg>